<svg width="25" height="25" viewBox="0 0 25 25" fill="none" xmlns="http://www.w3.org/2000/svg">
<path d="M12.5 21.0938C14.0102 21.0938 15.2344 19.8695 15.2344 18.3594C15.2344 16.8492 14.0102 15.625 12.5 15.625C10.9898 15.625 9.76562 16.8492 9.76562 18.3594C9.76562 19.8695 10.9898 21.0938 12.5 21.0938Z" stroke="white" stroke-width="2" stroke-linecap="round" stroke-linejoin="round"/>
<path d="M18.3594 9.37476C19.8695 9.37476 21.0938 8.15053 21.0938 6.64038C21.0938 5.13023 19.8695 3.90601 18.3594 3.90601C16.8492 3.90601 15.625 5.13023 15.625 6.64038C15.625 8.15053 16.8492 9.37476 18.3594 9.37476Z" stroke="white" stroke-width="2" stroke-linecap="round" stroke-linejoin="round"/>
<path d="M6.64062 9.37476C8.15078 9.37476 9.375 8.15053 9.375 6.64038C9.375 5.13023 8.15078 3.90601 6.64062 3.90601C5.13047 3.90601 3.90625 5.13023 3.90625 6.64038C3.90625 8.15053 5.13047 9.37476 6.64062 9.37476Z" stroke="white" stroke-width="2" stroke-linecap="round" stroke-linejoin="round"/>
<path d="M6.64062 9.37476V10.1562C6.64062 10.464 6.70125 10.7688 6.81904 11.0531C6.93682 11.3375 7.10947 11.5959 7.32711 11.8135C7.54475 12.0311 7.80313 12.2038 8.08749 12.3216C8.37186 12.4393 8.67663 12.5 8.98442 12.5L16.0157 12.4998C16.6373 12.4998 17.2334 12.2529 17.6729 11.8133C18.1125 11.3738 18.3594 10.7777 18.3594 10.1561V9.37476" stroke="white" stroke-width="2" stroke-linecap="round" stroke-linejoin="round"/>
<path d="M12.5002 12.5L12.5 15.625" stroke="white" stroke-width="2" stroke-linecap="round" stroke-linejoin="round"/>
</svg>
